<svg id="Layer_1" data-name="Layer 1" xmlns="http://www.w3.org/2000/svg" xmlns:xlink="http://www.w3.org/1999/xlink" viewBox="0 0 400 400"><defs><radialGradient id="radial-gradient" cx="200" cy="200" r="200" gradientUnits="userSpaceOnUse"><stop offset="0" stop-color="#fff"/><stop offset="0.03" stop-color="#fdeced" stop-opacity="0.98"/><stop offset="0.13" stop-color="#fabcbe" stop-opacity="0.94"/><stop offset="0.23" stop-color="#f69195" stop-opacity="0.9"/><stop offset="0.34" stop-color="#f36d72" stop-opacity="0.87"/><stop offset="0.45" stop-color="#f14f56" stop-opacity="0.85"/><stop offset="0.57" stop-color="#ef3940" stop-opacity="0.83"/><stop offset="0.69" stop-color="#ee2930" stop-opacity="0.81"/><stop offset="0.82" stop-color="#ed1f27" stop-opacity="0.8"/><stop offset="1" stop-color="#ed1c24" stop-opacity="0.8"/></radialGradient><linearGradient id="linear-gradient" x1="286.37" y1="260.02" x2="286.43" y2="274.17" gradientTransform="translate(640.1 310.86) rotate(162.86)" gradientUnits="userSpaceOnUse"><stop offset="0.61" stop-color="#fff"/><stop offset="0.64" stop-color="silver"/><stop offset="0.67" stop-color="#7d7d7d"/><stop offset="0.71" stop-color="#474747"/><stop offset="0.73" stop-color="#202020"/><stop offset="0.76" stop-color="#090909"/><stop offset="0.77"/></linearGradient><linearGradient id="linear-gradient-2" x1="281.37" y1="232.83" x2="291.35" y2="232.83" gradientTransform="translate(640.32 310.86) rotate(162.86)" gradientUnits="userSpaceOnUse"><stop offset="0" stop-color="#fff"/><stop offset="0.19" stop-color="silver" stop-opacity="0.88"/><stop offset="0.41" stop-color="#7d7d7d" stop-opacity="0.74"/><stop offset="0.61" stop-color="#474747" stop-opacity="0.64"/><stop offset="0.78" stop-color="#202020" stop-opacity="0.56"/><stop offset="0.92" stop-color="#090909" stop-opacity="0.52"/><stop offset="1" stop-opacity="0.5"/></linearGradient></defs><rect width="400" height="400" style="fill:url(#radial-gradient)"/><line x1="286.09" y1="139.39" x2="272.79" y2="139.47" style="fill:none"/><rect x="71.21" y="74.78" width="192.52" height="250.43" transform="translate(-49.59 55.65) rotate(-16.46)" style="fill:#fff"/><text transform="translate(77.82 129.37) rotate(-17)" style="font-size:28px;font-family:GloucesterMT-ExtraCondensed, Gloucester MT Extra Condensed">VE<tspan x="22.04" y="0" style="letter-spacing:-0.0927734375em">T</tspan><tspan x="30.21" y="0">-EXE</tspan><tspan x="69.79" y="0" style="letter-spacing:0.0048828125em">C</tspan><tspan x="80.9" y="0">UTIVE </tspan><tspan x="-17.6" y="33.6">MEMBE</tspan><tspan x="43.95" y="33.6" style="letter-spacing:0.01123046875em">R</tspan><tspan x="55.91" y="33.6">SHIP </tspan><tspan x="100.04" y="33.6" style="letter-spacing:-0.00390625em">F</tspan><tspan x="109.94" y="33.6">ORM</tspan></text><rect x="52.99" y="81.39" width="181.57" height="80.03" transform="translate(-29 47.34) rotate(-17)" style="fill:none;stroke:#d1d3d4;stroke-linecap:round;stroke-linejoin:round;stroke-width:2px"/><rect x="65.88" y="168.15" width="185.48" height="10.17" transform="translate(-43.5 53.95) rotate(-17)" style="fill:#ed1c24;opacity:0.4"/><rect x="70.08" y="181.9" width="185.48" height="10.17" transform="translate(-47.34 55.78) rotate(-17)" style="fill:#ed1c24;opacity:0.4"/><rect x="74.12" y="195.09" width="185.48" height="10.17" transform="translate(-51.02 57.53) rotate(-17)" style="fill:#ed1c24;opacity:0.4"/><rect x="77.92" y="207.52" width="185.48" height="10.17" transform="translate(-54.49 59.19) rotate(-17)" style="fill:#ed1c24;opacity:0.4"/><rect x="81.92" y="220.62" width="185.48" height="10.17" transform="translate(-58.14 60.93) rotate(-17)" style="fill:#ed1c24;opacity:0.4"/><rect x="85.62" y="232.73" width="185.48" height="10.17" transform="translate(-61.52 62.54) rotate(-17)" style="fill:#ed1c24;opacity:0.4"/><rect x="89.33" y="246.84" width="185.48" height="10.17" transform="translate(-65.48 64.24) rotate(-17)" style="fill:#ed1c24;opacity:0.4"/><rect x="93.64" y="260.67" width="185.48" height="10.17" transform="translate(-69.34 66.1) rotate(-17)" style="fill:#ed1c24;opacity:0.4"/><rect x="106.84" y="303.38" width="185.48" height="10.17" transform="translate(-81.25 71.83) rotate(-17)" style="fill:#ed1c24;opacity:0.4"/><rect x="97.56" y="274.76" width="185.48" height="10.17" transform="translate(-73.29 67.87) rotate(-17)" style="fill:#ed1c24;opacity:0.4"/><rect x="101.73" y="289.32" width="185.48" height="10.17" transform="translate(-77.36 69.72) rotate(-17)" style="fill:#ed1c24;opacity:0.4"/><path d="M286.51,136l-.82,13.94a.85.85,0,0,0,1.1.86l7.84-2.41a.86.86,0,0,0,.42-1.34Z" transform="translate(0.22)" style="fill:url(#linear-gradient)"/><path d="M303.44,207.78l-2.87-9.32,9.5-3,2.9,9.41c.59,1.91-.09,3.82-1.52,4.25l-4.35,1.35C305.67,210.88,304,209.69,303.44,207.78Z" transform="translate(0.22)" style="fill:#231f20"/><polygon points="300.78 198.46 285.85 150.04 295.36 147.02 310.29 195.43 300.78 198.46" style="fill:url(#linear-gradient-2)"/></svg>