<svg id="Layer_1" data-name="Layer 1" xmlns="http://www.w3.org/2000/svg" xmlns:xlink="http://www.w3.org/1999/xlink" viewBox="0 0 400 200"><defs><linearGradient id="linear-gradient" x1="283.98" y1="91.81" x2="284.49" y2="103.12" gradientUnits="userSpaceOnUse"><stop offset="0.29" stop-color="#fff"/><stop offset="0.34" stop-color="#fef5ea"/><stop offset="0.44" stop-color="#fcdab4"/><stop offset="0.57" stop-color="#f9b05d"/><stop offset="0.67" stop-color="#f6921f"/></linearGradient><linearGradient id="linear-gradient-2" x1="203.93" y1="93.57" x2="205.88" y2="103.36" xlink:href="#linear-gradient"/></defs><rect width="400" height="200" style="fill:#fff"/><path d="M192.37,182.19c-45.14,0-80.5-36.56-80.5-83.23,0-23.44,8.78-45.11,24.74-61A81,81,0,0,1,194.06,14a82.67,82.67,0,0,1,10.77.72c40,5.38,70.25,40.85,70.25,82.51s-30.23,77.79-70.31,84A82.1,82.1,0,0,1,192.37,182.19Z" transform="translate(0 -0.4)" style="fill:#fff"/><path d="M194.06,11v6h0a78.32,78.32,0,0,1,10.37.7A76.6,76.6,0,0,1,253,44.81a81.93,81.93,0,0,1,19.07,52.43A83.57,83.57,0,0,1,253,150.12a78.69,78.69,0,0,1-48.66,28.14,77.49,77.49,0,0,1-11.95.93,76.37,76.37,0,0,1-54.23-22.44c-15-14.95-23.27-35.47-23.27-57.79,0-22.64,8.47-43.56,23.86-58.9a78,78,0,0,1,55.33-23V11m0,0C148.81,11,108.87,47.83,108.87,99c0,50.49,38.94,86.23,83.5,86.23a83.83,83.83,0,0,0,12.86-1c42.56-6.57,72.85-45.15,72.85-86.95s-30.29-79.76-72.85-85.48A84.4,84.4,0,0,0,194.06,11Z" transform="translate(0 -0.4)" style="fill:#f6921f"/><path d="M192.56,167.36c-37.17,0-66.29-30.11-66.29-68.55,0-19.31,7.24-37.16,20.38-50.27A66.69,66.69,0,0,1,194,28.84a66,66,0,0,1,8.87.6c33,4.43,57.84,33.64,57.84,68s-24.89,64.08-57.9,69.18A67.42,67.42,0,0,1,192.56,167.36Z" transform="translate(0 -0.4)" style="fill:#fff"/><path d="M194,25.84v6a63.21,63.21,0,0,1,8.47.57,62.53,62.53,0,0,1,39.66,22.13,67,67,0,0,1,15.58,42.85,68.31,68.31,0,0,1-15.61,43.22,63.56,63.56,0,0,1-49.5,23.75A62.34,62.34,0,0,1,148.29,146c-12.26-12.21-19-29-19-47.23,0-18.51,6.93-35.61,19.5-48.14A63.69,63.69,0,0,1,194,31.84v-6m0,0c-37.55,0-70.69,30.55-70.69,73,0,41.89,32.32,71.55,69.29,71.55a69.06,69.06,0,0,0,10.67-.83c35.31-5.45,60.44-37.46,60.44-72.14s-25.13-66.18-60.44-70.93a70.87,70.87,0,0,0-9.27-.62Z" transform="translate(0 -0.4)" style="fill:#f6921f"/><path d="M192.73,154.06c-30,0-53.54-24.32-53.54-55.38a56.82,56.82,0,0,1,16.47-40.63A53.81,53.81,0,0,1,201,42.62c26.64,3.57,46.73,27.18,46.73,54.9S227.65,149.3,201,153.43A54.57,54.57,0,0,1,192.73,154.06Z" transform="translate(0 -0.4)" style="fill:#fff"/><path d="M193.87,45.14h0a51.32,51.32,0,0,1,6.77.45A50,50,0,0,1,232.3,63.26a53.59,53.59,0,0,1,12.46,34.26,54.62,54.62,0,0,1-12.5,34.57,50.63,50.63,0,0,1-39.54,19c-28.33,0-50.53-23-50.53-52.38a53.79,53.79,0,0,1,15.59-38.5,50.82,50.82,0,0,1,36.09-15m0-6c-30.64,0-57.68,24.92-57.68,59.54,0,34.19,26.37,58.38,56.53,58.38a57.17,57.17,0,0,0,8.71-.67c28.82-4.45,49.33-30.57,49.33-58.87s-20.51-54-49.33-57.88a56.79,56.79,0,0,0-7.56-.5Z" transform="translate(0 -0.4)" style="fill:#f6921f"/><path d="M192.91,139.26c-22.06,0-39.34-17.89-39.34-40.73,0-23.32,17.66-41.59,40.2-41.59a38.89,38.89,0,0,1,5.27.36c19.57,2.62,34.33,20,34.33,40.36s-14.78,38.1-34.39,41.13A39.93,39.93,0,0,1,192.91,139.26Z" transform="translate(0 -0.4)" style="fill:#fff"/><path d="M193.77,53.94v6a36.22,36.22,0,0,1,4.87.33c18.09,2.43,31.73,18.5,31.73,37.39S216.68,133,198.52,135.82a36.56,36.56,0,0,1-5.61.44c-20.38,0-36.34-16.57-36.34-37.73A38.82,38.82,0,0,1,167.8,70.77a36.61,36.61,0,0,1,26-10.83v-6m0,0c-22.94,0-43.2,18.67-43.2,44.59,0,25.61,19.75,43.73,42.34,43.73a42.64,42.64,0,0,0,6.53-.51c21.57-3.33,36.93-22.89,36.93-44.09S221,57.22,199.44,54.32a43.67,43.67,0,0,0-5.67-.38Z" transform="translate(0 -0.4)" style="fill:#f6921f"/><polygon points="356.12 97.69 212.2 101.91 212.2 93.55 356.12 89.69 356.12 97.69" style="fill:url(#linear-gradient)"/><path d="M218,103l-.39-9.47a4.67,4.67,0,0,0-6.88-3.92L191.46,100l20.24,7.6A4.68,4.68,0,0,0,218,103Z" transform="translate(0 -0.4)" style="fill:url(#linear-gradient-2)"/><polygon points="356.12 97.51 375.3 97.51 356.12 95.26 375.3 92 356.12 92 356.12 97.51" style="fill:#f6921f"/></svg>