<svg id="Layer_1" data-name="Layer 1" xmlns="http://www.w3.org/2000/svg" viewBox="0 0 400 200"><rect width="400" height="200" style="fill:#fff"/><path d="M200.57,143.43A130.79,130.79,0,0,1,103.3,100a130.64,130.64,0,0,1,194.54,0A130.79,130.79,0,0,1,200.57,143.43Z" transform="translate(0 0)" style="fill:#fff"/><path d="M200.57,57.57A129.77,129.77,0,0,1,296.49,100a129.64,129.64,0,0,1-191.84,0,129.78,129.78,0,0,1,95.92-42.43m0-2A131.33,131.33,0,0,0,102,100a131.64,131.64,0,0,0,197.22,0,131.33,131.33,0,0,0-98.61-44.43Z" transform="translate(0 0)" style="fill:#f7941d"/><path d="M200.57,131.67A31.67,31.67,0,1,1,232.25,100,31.71,31.71,0,0,1,200.57,131.67Z" transform="translate(0 0)" style="fill:#fff"/><path d="M200.57,69.33A30.67,30.67,0,1,1,169.9,100a30.71,30.71,0,0,1,30.67-30.67m0-2A32.67,32.67,0,1,0,233.24,100a32.67,32.67,0,0,0-32.67-32.67Z" transform="translate(0 0)" style="fill:#f7941d"/><circle cx="201.71" cy="100" r="15.27" style="fill:#f7941d"/><path d="M201.71,85.73A14.27,14.27,0,1,1,187.45,100a14.28,14.28,0,0,1,14.26-14.27m0-2A16.27,16.27,0,1,0,218,100a16.27,16.27,0,0,0-16.27-16.27Z" transform="translate(0 0)" style="fill:#f7941d"/><line x1="200.5" y1="32.03" x2="200.5" y2="49.85" style="fill:none;stroke:#f7941d;stroke-linecap:round;stroke-linejoin:round;stroke-width:2px"/><line x1="174.44" y1="35.82" x2="182.47" y2="52.57" style="fill:none;stroke:#f7941d;stroke-linecap:round;stroke-linejoin:round;stroke-width:2px"/><line x1="226.7" y1="35.23" x2="218.67" y2="51.97" style="fill:none;stroke:#f7941d;stroke-linecap:round;stroke-linejoin:round;stroke-width:2px"/></svg>